# Blender 4.4.1
# www.blender.org
mtllib arrow.mtl
o Cone
v 0.000000 1.357430 -1.306813
v 0.254946 1.357430 -1.281702
v 0.500096 1.357430 -1.207337
v 0.726026 1.357430 -1.086575
v 0.924056 1.357430 -0.924056
v 1.086575 1.357430 -0.726026
v 1.207337 1.357430 -0.500096
v 1.281702 1.357430 -0.254946
v 1.306813 1.357430 0.000000
v 1.281702 1.357430 0.254946
v 1.207337 1.357430 0.500096
v 1.086575 1.357430 0.726026
v 0.924056 1.357430 0.924056
v 0.726026 1.357430 1.086575
v 0.500096 1.357430 1.207337
v 0.254946 1.357430 1.281702
v 0.000000 1.357430 1.306813
v -0.254946 1.357430 1.281702
v -0.500096 1.357430 1.207337
v -0.726026 1.357430 1.086575
v -0.924056 1.357430 0.924056
v -1.086575 1.357430 0.726026
v -1.207337 1.357430 0.500096
v -1.281702 1.357430 0.254946
v -1.306813 1.357430 0.000000
v -1.281702 1.357430 -0.254946
v -1.207337 1.357430 -0.500096
v -1.086575 1.357430 -0.726026
v -0.924056 1.357430 -0.924056
v -0.726026 1.357430 -1.086575
v -0.500096 1.357430 -1.207337
v -0.254946 1.357430 -1.281702
v 0.000000 3.971055 0.000000
v 0.000000 -1.979416 -0.474949
v 0.000000 1.979416 -0.474949
v 0.092658 -1.979416 -0.465823
v 0.092658 1.979416 -0.465823
v 0.181755 -1.979416 -0.438795
v 0.181755 1.979416 -0.438795
v 0.263867 -1.979416 -0.394905
v 0.263867 1.979416 -0.394905
v 0.335839 -1.979416 -0.335839
v 0.335839 1.979416 -0.335839
v 0.394905 -1.979416 -0.263867
v 0.394905 1.979416 -0.263867
v 0.438795 -1.979416 -0.181755
v 0.438795 1.979416 -0.181755
v 0.465823 -1.979416 -0.092658
v 0.465823 1.979416 -0.092658
v 0.474949 -1.979416 0.000000
v 0.474949 1.979416 0.000000
v 0.465823 -1.979416 0.092658
v 0.465823 1.979416 0.092658
v 0.438795 -1.979416 0.181755
v 0.438795 1.979416 0.181755
v 0.394905 -1.979416 0.263867
v 0.394905 1.979416 0.263867
v 0.335839 -1.979416 0.335839
v 0.335839 1.979416 0.335839
v 0.263867 -1.979416 0.394905
v 0.263867 1.979416 0.394905
v 0.181755 -1.979416 0.438795
v 0.181755 1.979416 0.438795
v 0.092658 -1.979416 0.465823
v 0.092658 1.979416 0.465823
v 0.000000 -1.979416 0.474949
v 0.000000 1.979416 0.474949
v -0.092658 -1.979416 0.465823
v -0.092658 1.979416 0.465823
v -0.181755 -1.979416 0.438795
v -0.181755 1.979416 0.438795
v -0.263867 -1.979416 0.394905
v -0.263867 1.979416 0.394905
v -0.335839 -1.979416 0.335839
v -0.335839 1.979416 0.335839
v -0.394905 -1.979416 0.263867
v -0.394905 1.979416 0.263867
v -0.438795 -1.979416 0.181755
v -0.438795 1.979416 0.181755
v -0.465823 -1.979416 0.092658
v -0.465823 1.979416 0.092658
v -0.474949 -1.979416 0.000000
v -0.474949 1.979416 0.000000
v -0.465823 -1.979416 -0.092658
v -0.465823 1.979416 -0.092658
v -0.438795 -1.979416 -0.181755
v -0.438795 1.979416 -0.181755
v -0.394905 -1.979416 -0.263867
v -0.394905 1.979416 -0.263867
v -0.335839 -1.979416 -0.335839
v -0.335839 1.979416 -0.335839
v -0.263867 -1.979416 -0.394905
v -0.263867 1.979416 -0.394905
v -0.181755 -1.979416 -0.438795
v -0.181755 1.979416 -0.438795
v -0.092658 -1.979416 -0.465823
v -0.092658 1.979416 -0.465823
vn -0.0000 0.4472 -0.8944
vn -0.0000 1.0000 -0.0000
vn 0.1745 0.4472 -0.8772
vn 0.3423 0.4472 -0.8263
vn 0.4969 0.4472 -0.7437
vn 0.6325 0.4472 -0.6325
vn 0.7437 0.4472 -0.4969
vn 0.8263 0.4472 -0.3423
vn 0.8772 0.4472 -0.1745
vn 0.8944 0.4472 -0.0000
vn 0.8772 0.4472 0.1745
vn 0.8263 0.4472 0.3423
vn 0.7437 0.4472 0.4969
vn 0.6325 0.4472 0.6325
vn 0.4969 0.4472 0.7437
vn 0.3423 0.4472 0.8263
vn 0.1745 0.4472 0.8772
vn -0.0000 0.4472 0.8944
vn -0.1745 0.4472 0.8772
vn -0.3423 0.4472 0.8263
vn -0.4969 0.4472 0.7437
vn -0.6325 0.4472 0.6325
vn -0.7437 0.4472 0.4969
vn -0.8263 0.4472 0.3423
vn -0.8772 0.4472 0.1745
vn -0.8944 0.4472 -0.0000
vn -0.8772 0.4472 -0.1745
vn -0.8263 0.4472 -0.3423
vn -0.7437 0.4472 -0.4969
vn -0.6325 0.4472 -0.6325
vn -0.4969 0.4472 -0.7437
vn -0.3423 0.4472 -0.8263
vn -0.0000 -1.0000 -0.0000
vn -0.1745 0.4472 -0.8772
vn -0.0000 -0.0000 -1.0000
vn 0.1951 -0.0000 -0.9808
vn 0.3827 -0.0000 -0.9239
vn 0.5556 -0.0000 -0.8315
vn 0.7071 -0.0000 -0.7071
vn 0.8315 -0.0000 -0.5556
vn 0.9239 -0.0000 -0.3827
vn 0.9808 -0.0000 -0.1951
vn 1.0000 -0.0000 -0.0000
vn 0.9808 -0.0000 0.1951
vn 0.9239 -0.0000 0.3827
vn 0.8315 -0.0000 0.5556
vn 0.7071 -0.0000 0.7071
vn 0.5556 -0.0000 0.8315
vn 0.3827 -0.0000 0.9239
vn 0.1951 -0.0000 0.9808
vn -0.0000 -0.0000 1.0000
vn -0.1951 -0.0000 0.9808
vn -0.3827 -0.0000 0.9239
vn -0.5556 -0.0000 0.8315
vn -0.7071 -0.0000 0.7071
vn -0.8315 -0.0000 0.5556
vn -0.9239 -0.0000 0.3827
vn -0.9808 -0.0000 0.1951
vn -1.0000 -0.0000 -0.0000
vn -0.9808 -0.0000 -0.1951
vn -0.9239 -0.0000 -0.3827
vn -0.8315 -0.0000 -0.5556
vn -0.7071 -0.0000 -0.7071
vn -0.5556 -0.0000 -0.8315
vn -0.3827 -0.0000 -0.9239
vn -0.1951 -0.0000 -0.9808
vt 0.250000 0.490000
vt 0.250000 0.250000
vt 0.296822 0.485388
vt 0.341844 0.471731
vt 0.383337 0.449553
vt 0.419706 0.419706
vt 0.449553 0.383337
vt 0.471731 0.341844
vt 0.485388 0.296822
vt 0.490000 0.250000
vt 0.485388 0.203178
vt 0.471731 0.158156
vt 0.449553 0.116663
vt 0.419706 0.080294
vt 0.383337 0.050447
vt 0.341844 0.028269
vt 0.296822 0.014612
vt 0.250000 0.010000
vt 0.203178 0.014612
vt 0.158156 0.028269
vt 0.116663 0.050447
vt 0.080294 0.080294
vt 0.050447 0.116663
vt 0.028269 0.158156
vt 0.014612 0.203178
vt 0.010000 0.250000
vt 0.014612 0.296822
vt 0.028269 0.341844
vt 0.050447 0.383337
vt 0.080294 0.419706
vt 0.116663 0.449553
vt 0.158156 0.471731
vt 0.750000 0.490000
vt 0.796822 0.485388
vt 0.841844 0.471731
vt 0.883337 0.449553
vt 0.919706 0.419706
vt 0.949553 0.383337
vt 0.971731 0.341844
vt 0.985388 0.296822
vt 0.990000 0.250000
vt 0.985388 0.203178
vt 0.971731 0.158156
vt 0.949553 0.116663
vt 0.919706 0.080294
vt 0.883337 0.050447
vt 0.841844 0.028269
vt 0.796822 0.014612
vt 0.750000 0.010000
vt 0.703178 0.014612
vt 0.658156 0.028269
vt 0.616663 0.050447
vt 0.580294 0.080294
vt 0.550447 0.116663
vt 0.528269 0.158156
vt 0.514612 0.203178
vt 0.510000 0.250000
vt 0.514612 0.296822
vt 0.528269 0.341844
vt 0.550447 0.383337
vt 0.580294 0.419706
vt 0.616663 0.449553
vt 0.658156 0.471731
vt 0.703178 0.485388
vt 0.203178 0.485388
vt 1.000000 0.500000
vt 1.000000 1.000000
vt 0.968750 1.000000
vt 0.968750 0.500000
vt 0.937500 1.000000
vt 0.937500 0.500000
vt 0.906250 1.000000
vt 0.906250 0.500000
vt 0.875000 1.000000
vt 0.875000 0.500000
vt 0.843750 1.000000
vt 0.843750 0.500000
vt 0.812500 1.000000
vt 0.812500 0.500000
vt 0.781250 1.000000
vt 0.781250 0.500000
vt 0.750000 1.000000
vt 0.750000 0.500000
vt 0.718750 1.000000
vt 0.718750 0.500000
vt 0.687500 1.000000
vt 0.687500 0.500000
vt 0.656250 1.000000
vt 0.656250 0.500000
vt 0.625000 1.000000
vt 0.625000 0.500000
vt 0.593750 1.000000
vt 0.593750 0.500000
vt 0.562500 1.000000
vt 0.562500 0.500000
vt 0.531250 1.000000
vt 0.531250 0.500000
vt 0.500000 1.000000
vt 0.500000 0.500000
vt 0.468750 1.000000
vt 0.468750 0.500000
vt 0.437500 1.000000
vt 0.437500 0.500000
vt 0.406250 1.000000
vt 0.406250 0.500000
vt 0.375000 1.000000
vt 0.375000 0.500000
vt 0.343750 1.000000
vt 0.343750 0.500000
vt 0.312500 1.000000
vt 0.312500 0.500000
vt 0.281250 1.000000
vt 0.281250 0.500000
vt 0.250000 1.000000
vt 0.250000 0.500000
vt 0.218750 1.000000
vt 0.218750 0.500000
vt 0.187500 1.000000
vt 0.187500 0.500000
vt 0.156250 1.000000
vt 0.156250 0.500000
vt 0.125000 1.000000
vt 0.125000 0.500000
vt 0.093750 1.000000
vt 0.093750 0.500000
vt 0.062500 1.000000
vt 0.062500 0.500000
vt 0.031250 1.000000
vt 0.031250 0.500000
vt 0.000000 1.000000
vt 0.000000 0.500000
s 1
f 1/1/1 33/2/2 2/3/3
f 2/3/3 33/2/2 3/4/4
f 3/4/4 33/2/2 4/5/5
f 4/5/5 33/2/2 5/6/6
f 5/6/6 33/2/2 6/7/7
f 6/7/7 33/2/2 7/8/8
f 7/8/8 33/2/2 8/9/9
f 8/9/9 33/2/2 9/10/10
f 9/10/10 33/2/2 10/11/11
f 10/11/11 33/2/2 11/12/12
f 11/12/12 33/2/2 12/13/13
f 12/13/13 33/2/2 13/14/14
f 13/14/14 33/2/2 14/15/15
f 14/15/15 33/2/2 15/16/16
f 15/16/16 33/2/2 16/17/17
f 16/17/17 33/2/2 17/18/18
f 17/18/18 33/2/2 18/19/19
f 18/19/19 33/2/2 19/20/20
f 19/20/20 33/2/2 20/21/21
f 20/21/21 33/2/2 21/22/22
f 21/22/22 33/2/2 22/23/23
f 22/23/23 33/2/2 23/24/24
f 23/24/24 33/2/2 24/25/25
f 24/25/25 33/2/2 25/26/26
f 25/26/26 33/2/2 26/27/27
f 26/27/27 33/2/2 27/28/28
f 27/28/28 33/2/2 28/29/29
f 28/29/29 33/2/2 29/30/30
f 29/30/30 33/2/2 30/31/31
f 30/31/31 33/2/2 31/32/32
f 1/33/33 2/34/33 3/35/33 4/36/33 5/37/33 6/38/33 7/39/33 8/40/33 9/41/33 10/42/33 11/43/33 12/44/33 13/45/33 14/46/33 15/47/33 16/48/33 17/49/33 18/50/33 19/51/33 20/52/33 21/53/33 22/54/33 23/55/33 24/56/33 25/57/33 26/58/33 27/59/33 28/60/33 29/61/33 30/62/33 31/63/33 32/64/33
f 31/32/32 33/2/2 32/65/34
f 32/65/34 33/2/2 1/1/1
f 34/66/35 35/67/35 37/68/36 36/69/36
f 36/69/36 37/68/36 39/70/37 38/71/37
f 38/71/37 39/70/37 41/72/38 40/73/38
f 40/73/38 41/72/38 43/74/39 42/75/39
f 42/75/39 43/74/39 45/76/40 44/77/40
f 44/77/40 45/76/40 47/78/41 46/79/41
f 46/79/41 47/78/41 49/80/42 48/81/42
f 48/81/42 49/80/42 51/82/43 50/83/43
f 50/83/43 51/82/43 53/84/44 52/85/44
f 52/85/44 53/84/44 55/86/45 54/87/45
f 54/87/45 55/86/45 57/88/46 56/89/46
f 56/89/46 57/88/46 59/90/47 58/91/47
f 58/91/47 59/90/47 61/92/48 60/93/48
f 60/93/48 61/92/48 63/94/49 62/95/49
f 62/95/49 63/94/49 65/96/50 64/97/50
f 64/97/50 65/96/50 67/98/51 66/99/51
f 66/99/51 67/98/51 69/100/52 68/101/52
f 68/101/52 69/100/52 71/102/53 70/103/53
f 70/103/53 71/102/53 73/104/54 72/105/54
f 72/105/54 73/104/54 75/106/55 74/107/55
f 74/107/55 75/106/55 77/108/56 76/109/56
f 76/109/56 77/108/56 79/110/57 78/111/57
f 78/111/57 79/110/57 81/112/58 80/113/58
f 80/113/58 81/112/58 83/114/59 82/115/59
f 82/115/59 83/114/59 85/116/60 84/117/60
f 84/117/60 85/116/60 87/118/61 86/119/61
f 86/119/61 87/118/61 89/120/62 88/121/62
f 88/121/62 89/120/62 91/122/63 90/123/63
f 90/123/63 91/122/63 93/124/64 92/125/64
f 92/125/64 93/124/64 95/126/65 94/127/65
f 37/3/2 35/1/2 97/65/2 95/32/2 93/31/2 91/30/2 89/29/2 87/28/2 85/27/2 83/26/2 81/25/2 79/24/2 77/23/2 75/22/2 73/21/2 71/20/2 69/19/2 67/18/2 65/17/2 63/16/2 61/15/2 59/14/2 57/13/2 55/12/2 53/11/2 51/10/2 49/9/2 47/8/2 45/7/2 43/6/2 41/5/2 39/4/2
f 94/127/65 95/126/65 97/128/66 96/129/66
f 96/129/66 97/128/66 35/130/35 34/131/35
f 34/33/33 36/34/33 38/35/33 40/36/33 42/37/33 44/38/33 46/39/33 48/40/33 50/41/33 52/42/33 54/43/33 56/44/33 58/45/33 60/46/33 62/47/33 64/48/33 66/49/33 68/50/33 70/51/33 72/52/33 74/53/33 76/54/33 78/55/33 80/56/33 82/57/33 84/58/33 86/59/33 88/60/33 90/61/33 92/62/33 94/63/33 96/64/33
